<svg width="282" height="276" viewBox="0 0 282 276" fill="none" xmlns="http://www.w3.org/2000/svg" xmlns:xlink="http://www.w3.org/1999/xlink">
<path d="M159.564,231.84C106.548,231.84 63.684,189.888 63.684,138C63.684,86.112 106.548,44.16 159.564,44.16C212.58,44.16 255.444,86.112 255.444,138C255.444,189.888 212.016,231.84 159.564,231.84ZM159.564,55.2C112.752,55.2 74.964,92.184 74.964,138C74.964,183.816 112.752,220.8 159.564,220.8C206.376,220.8 244.164,183.816 244.164,138C244.164,92.184 205.812,55.2 159.564,55.2Z" fill="#000000"/>
<path d="M104.292,205.896L94.14,201.48C96.96,194.856 105.984,190.992 115.572,186.576C125.16,182.16 137.004,177.192 137.004,171.12L137.004,162.84C133.62,160.08 127.98,154.008 126.852,145.176C124.032,142.416 119.52,137.448 119.52,130.824C119.52,126.96 121.212,123.648 122.34,121.44C121.212,117.024 120.084,108.744 120.084,102.12C120.084,80.592 135.312,66.24 159.564,66.24C166.332,66.24 174.792,67.896 179.304,72.864C190.02,75.072 199.044,87.216 199.044,102.12C199.044,111.504 197.352,119.232 196.224,123.096C197.352,124.752 198.48,127.512 198.48,130.824C198.48,138 194.532,142.968 191.148,145.176C190.02,154.008 184.944,159.528 181.56,162.288L181.56,171.12C181.56,176.088 191.712,179.952 200.736,183.264C211.452,187.128 222.732,191.544 226.68,200.376L215.964,204.24C214.272,199.824 205.248,196.512 196.788,193.752C184.38,189.336 170.28,184.368 170.28,171.672L170.28,157.32L173.1,155.664C173.1,155.664 179.868,151.248 179.868,142.416L179.868,138.552L183.252,136.896C183.816,136.896 186.636,135.24 186.636,130.824C186.636,129.72 185.508,128.064 184.944,127.512L182.688,125.304L183.816,122.544C183.816,122.544 186.636,113.712 186.636,102.672C186.636,92.184 180.432,84.456 175.356,84.456L171.972,84.456L170.28,81.696C170.28,79.488 166.332,77.28 159.564,77.28C142.08,77.28 131.364,86.664 131.364,102.12C131.364,109.296 134.184,121.44 134.184,121.44L134.748,124.2L132.492,126.96C131.928,126.96 130.8,128.616 130.8,130.824C130.8,133.584 134.184,136.896 135.876,138L138.132,139.656L138.132,142.416C138.132,150.696 145.464,155.112 145.464,155.664L148.284,157.32L148.284,171.672C148.284,184.92 133.62,191.544 120.084,197.064C113.88,199.272 105.42,203.136 104.292,205.896Z" fill="#000000"/>
</svg>
