<svg width="500" height="500" viewBox="0 0 500 500" fill="none" xmlns="http://www.w3.org/2000/svg" xmlns:xlink="http://www.w3.org/1999/xlink">
<path d="M250,62.5C146.875,62.5 62.5,146.875 62.5,250C62.5,353.124 146.875,437.5 250,437.5C304.166,437.5 353.124,414.584 386.458,378.124L250,250L250,62.5Z" fill="#D14C4C"/>
<path d="M194.413,300.58L354.346,394.173C367.887,381.886 382.66,330.064 381.069,304.068L194.413,300.58Z" transform="rotate(84.338 287.8 347.377)" fill="#006CA2"/>
<path d="M437.5,250C437.5,146.875 353.125,62.5 250,62.5L250,250L437.5,250Z" fill="#FCC21B"/>
<path d="M250,250L386.458,378.125C417.708,344.792 437.5,300 437.5,250L250,250Z" fill="#20318C"/>
<path d="M250.029,254.057C250.029,148.53 169.44,62.101 66.056,62.101L61.987,249.992L155.008,252.003L250.029,254.057Z" transform="rotate(-182.482 156.008 158.079)" fill="#448AFF"/>
</svg>
