<svg width="50" height="50" viewBox="0 0 50 50" fill="none" xmlns="http://www.w3.org/2000/svg" xmlns:xlink="http://www.w3.org/1999/xlink">
<path d="M38.281,0L11.719,0C5.247,0 0,5.247 0,11.719L0,38.281C0,44.753 5.247,50 11.719,50L38.281,50C44.753,50 50,44.753 50,38.281L50,11.719C50,5.247 44.753,0 38.281,0Z" fill="#FFFFFF"/>
<path d="M38.281,0L11.719,0C5.247,0 0,5.247 0,11.719L0,38.281C0,44.753 5.247,50 11.719,50L38.281,50C44.753,50 50,44.753 50,38.281L50,11.719C50,5.247 44.753,0 38.281,0Z" fill="#0A66C2"/>
<path d="M36.077,42.517L41.794,42.517C42.001,42.517 42.2,42.434 42.346,42.288C42.493,42.141 42.575,41.943 42.575,41.735L42.578,29.657C42.578,23.344 41.218,18.491 33.84,18.491C31.036,18.387 28.391,19.833 26.964,22.247C26.957,22.259 26.946,22.268 26.934,22.273C26.921,22.278 26.907,22.279 26.894,22.275C26.881,22.272 26.869,22.264 26.861,22.253C26.852,22.242 26.848,22.229 26.848,22.215L26.848,19.855C26.848,19.648 26.765,19.45 26.619,19.303C26.472,19.157 26.274,19.074 26.066,19.074L20.641,19.074C20.434,19.074 20.235,19.157 20.089,19.303C19.942,19.45 19.86,19.648 19.86,19.855L19.86,41.734C19.86,41.941 19.942,42.14 20.089,42.287C20.235,42.433 20.434,42.516 20.641,42.516L26.358,42.516C26.565,42.516 26.764,42.433 26.91,42.287C27.057,42.14 27.139,41.941 27.139,41.734L27.139,30.919C27.139,27.861 27.719,24.9 31.51,24.9C35.247,24.9 35.296,28.399 35.296,31.117L35.296,41.735C35.296,41.942 35.378,42.141 35.525,42.288C35.671,42.434 35.87,42.517 36.077,42.517ZM7.422,11.646C7.422,13.963 9.329,15.87 11.647,15.87C13.964,15.87 15.87,13.962 15.87,11.645C15.87,9.328 13.963,7.422 11.646,7.422C9.329,7.422 7.422,9.329 7.422,11.646ZM8.781,42.517L14.505,42.517C14.712,42.517 14.911,42.434 15.058,42.288C15.204,42.141 15.286,41.942 15.286,41.735L15.286,19.855C15.286,19.648 15.204,19.45 15.058,19.303C14.911,19.157 14.712,19.074 14.505,19.074L8.781,19.074C8.574,19.074 8.375,19.157 8.229,19.303C8.082,19.45 8,19.648 8,19.855L8,41.735C8,41.942 8.082,42.141 8.229,42.288C8.375,42.434 8.574,42.517 8.781,42.517Z" fill="#FFFFFF"/>
</svg>
