<svg width="50" height="50" viewBox="0 0 50 50" fill="none" xmlns="http://www.w3.org/2000/svg" xmlns:xlink="http://www.w3.org/1999/xlink">
<path d="M38.281,0L11.719,0C5.247,0 0,5.247 0,11.719L0,38.281C0,44.753 5.247,50 11.719,50L38.281,50C44.753,50 50,44.753 50,38.281L50,11.719C50,5.247 44.753,0 38.281,0Z" fill="url(#pf_0_13_243)"/>
<path d="M38.281,0L11.719,0C5.247,0 0,5.247 0,11.719L0,38.281C0,44.753 5.247,50 11.719,50L38.281,50C44.753,50 50,44.753 50,38.281L50,11.719C50,5.247 44.753,0 38.281,0Z" fill="url(#pf_0_13_244)"/>
<path d="M25.002,5.469C19.697,5.469 19.032,5.492 16.948,5.587C14.869,5.682 13.45,6.011 12.208,6.494C10.923,6.993 9.834,7.66 8.748,8.746C7.662,9.832 6.994,10.922 6.494,12.206C6.009,13.448 5.68,14.868 5.586,16.946C5.493,19.03 5.469,19.696 5.469,25C5.469,30.305 5.492,30.968 5.587,33.052C5.682,35.131 6.012,36.55 6.494,37.792C6.993,39.077 7.661,40.166 8.747,41.252C9.832,42.339 10.922,43.007 12.205,43.506C13.448,43.989 14.868,44.318 16.947,44.414C19.03,44.508 19.695,44.532 24.999,44.532C30.304,44.532 30.968,44.508 33.051,44.414C35.131,44.318 36.551,43.989 37.794,43.506C39.078,43.007 40.166,42.339 41.252,41.252C42.338,40.166 43.005,39.077 43.506,37.793C43.986,36.55 44.316,35.131 44.413,33.052C44.507,30.969 44.531,30.305 44.531,25C44.531,19.696 44.507,19.03 44.413,16.947C44.316,14.867 43.986,13.448 43.506,12.206C43.005,10.922 42.338,9.832 41.252,8.746C40.165,7.66 39.079,6.993 37.793,6.494C36.548,6.011 35.128,5.682 33.048,5.587C30.965,5.492 30.302,5.469 24.996,5.469L25.002,5.469ZM23.25,8.988C23.77,8.988 24.35,8.988 25.002,8.988C30.217,8.988 30.835,9.007 32.894,9.101C34.798,9.188 35.832,9.506 36.521,9.773C37.432,10.127 38.082,10.551 38.765,11.234C39.449,11.918 39.872,12.569 40.227,13.48C40.494,14.168 40.813,15.202 40.899,17.106C40.993,19.165 41.013,19.783 41.013,24.996C41.013,30.208 40.993,30.827 40.899,32.886C40.812,34.79 40.494,35.823 40.227,36.511C39.873,37.423 39.449,38.072 38.765,38.755C38.081,39.439 37.432,39.862 36.521,40.216C35.833,40.484 34.798,40.802 32.894,40.889C30.835,40.982 30.217,41.003 25.002,41.003C19.787,41.003 19.168,40.982 17.11,40.889C15.205,40.801 14.172,40.483 13.483,40.215C12.571,39.861 11.92,39.438 11.237,38.755C10.553,38.071 10.13,37.422 9.775,36.51C9.508,35.822 9.189,34.788 9.102,32.884C9.009,30.825 8.99,30.207 8.99,24.991C8.99,19.775 9.009,19.16 9.102,17.101C9.189,15.197 9.508,14.163 9.775,13.475C10.129,12.563 10.553,11.912 11.237,11.229C11.92,10.545 12.571,10.122 13.483,9.767C14.171,9.498 15.205,9.181 17.11,9.094C18.911,9.012 19.61,8.988 23.25,8.984L23.25,8.988ZM35.428,12.231C34.134,12.231 33.084,13.28 33.084,14.574C33.084,15.868 34.134,16.918 35.428,16.918C36.722,16.918 37.771,15.868 37.771,14.574C37.771,13.28 36.722,12.231 35.428,12.231L35.428,12.231ZM25.002,14.97C19.463,14.97 14.972,19.461 14.972,25C14.972,30.54 19.463,35.028 25.002,35.028C30.541,35.028 35.031,30.54 35.031,25C35.031,19.461 30.541,14.97 25.001,14.97L25.002,14.97ZM25.002,18.49C28.597,18.49 31.512,21.404 31.512,25C31.512,28.596 28.597,31.511 25.002,31.511C21.406,31.511 18.491,28.596 18.491,25C18.491,21.404 21.406,18.49 25.002,18.49Z" fill="#FFFFFF"/>
<defs>
<radialGradient id="pf_0_13_243" cx="0" cy="0" r="1" gradientUnits="userSpaceOnUse" gradientTransform="matrix(0 -24.776856 23.044434 0 6.641 26.925)">
<stop stop-color="#FFDD55"/>
<stop offset="0.1" stop-color="#FFDD55"/>
<stop offset="0.5" stop-color="#FF543E"/>
<stop offset="1" stop-color="#C837AB"/>
</radialGradient>
<radialGradient id="pf_0_13_244" cx="0" cy="0" r="1" gradientUnits="userSpaceOnUse" gradientTransform="matrix(2.173781 10.85997 -44.765153 8.960397 -4.188 1.801)">
<stop stop-color="#3771C8"/>
<stop offset="0.128" stop-color="#3771C8"/>
<stop offset="1" stop-color="#6600FF" stop-opacity="0"/>
</radialGradient>
</defs>
</svg>
