<svg width="100" height="94" viewBox="0 0 100 94" fill="none" xmlns="http://www.w3.org/2000/svg" xmlns:xlink="http://www.w3.org/1999/xlink">
<path d="M88.889,13.056L11.111,13.056C8.164,13.056 5.338,14.156 3.254,16.115C1.171,18.073 0,20.73 0,23.5L0,70.5C0,73.27 1.171,75.927 3.254,77.885C5.338,79.844 8.164,80.944 11.111,80.944L88.889,80.944C91.836,80.944 94.662,79.844 96.746,77.885C98.829,75.927 100,73.27 100,70.5L100,23.5C100,20.73 98.829,18.073 96.746,16.115C94.662,14.156 91.836,13.056 88.889,13.056Z" fill="#C1272D"/>
<path d="M41.797,57.875L44.931,48.812L36.728,43.211L46.864,43.211L50,34.138L53.136,43.209L63.272,43.209L55.069,48.81L58.203,57.873L50,52.272L41.797,57.875ZM51.75,51.079L54.294,52.815L53.322,50.003L51.75,51.079ZM46.678,50.003L45.706,52.815L48.25,51.079L46.678,50.003ZM47.347,48.071L50,49.883L52.653,48.071L51.639,45.141L48.356,45.141L47.347,48.071ZM43.056,45.141L45.597,46.877L46.197,45.141L43.056,45.141ZM53.803,45.141L54.403,46.877L56.944,45.141L53.803,45.141ZM50.972,43.209L50,40.394L49.028,43.211L50.972,43.209Z" fill="#006233"/>
</svg>
