<svg width="134" height="140" viewBox="0 0 134 140" fill="none" xmlns="http://www.w3.org/2000/svg" xmlns:xlink="http://www.w3.org/1999/xlink">
<path d="M10.292,139.896L0.14,135.48C2.96,128.856 11.984,124.992 21.572,120.576C31.16,116.16 43.004,111.192 43.004,105.12L43.004,96.84C39.62,94.08 33.98,88.008 32.852,79.176C30.032,76.416 25.52,71.448 25.52,64.824C25.52,60.96 27.212,57.648 28.34,55.44C27.212,51.024 26.084,42.744 26.084,36.12C26.084,14.592 41.312,0.24 65.564,0.24C72.332,0.24 80.792,1.896 85.304,6.864C96.02,9.072 105.044,21.216 105.044,36.12C105.044,45.504 103.352,53.232 102.224,57.096C103.352,58.752 104.48,61.512 104.48,64.824C104.48,72 100.532,76.968 97.148,79.176C96.02,88.008 90.944,93.528 87.56,96.288L87.56,105.12C87.56,110.088 97.712,113.952 106.736,117.264C117.452,121.128 128.732,125.544 132.68,134.376L121.964,138.24C120.272,133.824 111.248,130.512 102.788,127.752C90.38,123.336 76.28,118.368 76.28,105.672L76.28,91.32L79.1,89.664C79.1,89.664 85.868,85.248 85.868,76.416L85.868,72.552L89.252,70.896C89.816,70.896 92.636,69.24 92.636,64.824C92.636,63.72 91.508,62.064 90.944,61.512L88.688,59.304L89.816,56.544C89.816,56.544 92.636,47.712 92.636,36.672C92.636,26.184 86.432,18.456 81.356,18.456L77.972,18.456L76.28,15.696C76.28,13.488 72.332,11.28 65.564,11.28C48.08,11.28 37.364,20.664 37.364,36.12C37.364,43.296 40.184,55.44 40.184,55.44L40.748,58.2L38.492,60.96C37.928,60.96 36.8,62.616 36.8,64.824C36.8,67.584 40.184,70.896 41.876,72L44.132,73.656L44.132,76.416C44.132,84.696 51.464,89.112 51.464,89.664L54.284,91.32L54.284,105.672C54.284,118.92 39.62,125.544 26.084,131.064C19.88,133.272 11.42,137.136 10.292,139.896Z" fill="#000000"/>
</svg>
