<svg width="40" height="48" viewBox="0 0 40 48" fill="none" xmlns="http://www.w3.org/2000/svg" xmlns:xlink="http://www.w3.org/1999/xlink">
<path d="M38.56,21.687C38.298,21.949 37.988,22.157 37.646,22.299C37.304,22.441 36.938,22.514 36.567,22.514C36.197,22.514 35.831,22.441 35.489,22.299C35.147,22.157 34.836,21.949 34.575,21.687L22.507,9.619L22.507,44.072C22.507,44.818 22.211,45.533 21.683,46.06C21.156,46.588 20.441,46.884 19.695,46.884C18.949,46.884 18.233,46.588 17.706,46.06C17.179,45.533 16.882,44.818 16.882,44.072L16.882,9.619L4.81,21.687C4.281,22.215 3.565,22.512 2.817,22.512C2.07,22.512 1.354,22.215 0.825,21.687C0.297,21.158 0,20.442 0,19.694C0,18.947 0.297,18.231 0.825,17.702L17.7,0.827C17.961,0.565 18.272,0.357 18.614,0.215C18.956,0.073 19.322,0 19.692,0C20.063,0 20.429,0.073 20.771,0.215C21.113,0.357 21.423,0.565 21.685,0.827L38.56,17.702C38.822,17.964 39.03,18.274 39.172,18.616C39.314,18.958 39.387,19.324 39.387,19.694C39.387,20.065 39.314,20.431 39.172,20.773C39.03,21.115 38.822,21.425 38.56,21.687Z" fill="#FFFFFF"/>
</svg>
