<svg width="76" height="74" viewBox="0 0 76 74" fill="none" xmlns="http://www.w3.org/2000/svg" xmlns:xlink="http://www.w3.org/1999/xlink">
<path d="M37,-0.7C32.075,-0.7 27.199,0.27 22.649,2.155C18.1,4.039 13.966,6.801 10.483,10.283C3.451,17.316 -0.5,26.854 -0.5,36.8C-0.5,53.375 10.263,67.437 25.15,72.425C27.025,72.725 27.625,71.562 27.625,70.55L27.625,64.212C17.237,66.462 15.025,59.187 15.025,59.187C13.3,54.837 10.862,53.675 10.862,53.675C7.45,51.35 11.125,51.425 11.125,51.425C14.875,51.687 16.862,55.287 16.862,55.287C20.125,60.987 25.638,59.3 27.775,58.4C28.113,55.962 29.088,54.312 30.138,53.375C21.813,52.437 13.075,49.212 13.075,34.925C13.075,30.762 14.5,27.425 16.938,24.762C16.563,23.825 15.25,19.925 17.313,14.862C17.313,14.862 20.463,13.85 27.625,18.687C30.588,17.862 33.813,17.45 37,17.45C40.188,17.45 43.413,17.862 46.375,18.687C53.538,13.85 56.688,14.862 56.688,14.862C58.75,19.925 57.438,23.825 57.063,24.762C59.5,27.425 60.925,30.762 60.925,34.925C60.925,49.25 52.15,52.4 43.788,53.337C45.138,54.5 46.375,56.787 46.375,60.275L46.375,70.55C46.375,71.562 46.975,72.762 48.888,72.425C63.775,67.4 74.5,53.375 74.5,36.8C74.5,31.875 73.53,26.999 71.645,22.449C69.761,17.9 66.999,13.766 63.517,10.283C60.034,6.801 55.9,4.039 51.351,2.155C46.801,0.27 41.925,-0.7 37,-0.7Z" fill="#FFFFFF"/>
</svg>
