<svg width="28" height="24" viewBox="0 0 28 24" fill="none" xmlns="http://www.w3.org/2000/svg" xmlns:xlink="http://www.w3.org/1999/xlink">
<path d="M5.797,23.875L8.931,14.812L0.728,9.211L10.864,9.211L14,0.138L17.136,9.209L27.272,9.209L19.069,14.81L22.203,23.873L14,18.272L5.797,23.875ZM15.75,17.079L18.294,18.815L17.322,16.003L15.75,17.079ZM10.678,16.003L9.706,18.815L12.25,17.079L10.678,16.003ZM11.347,14.071L14,15.883L16.653,14.071L15.639,11.141L12.356,11.141L11.347,14.071ZM7.056,11.141L9.597,12.877L10.197,11.141L7.056,11.141ZM17.803,11.141L18.403,12.877L20.944,11.141L17.803,11.141ZM14.972,9.209L14,6.394L13.028,9.211L14.972,9.209Z" fill="#006233"/>
</svg>
