<svg width="32" height="44" viewBox="0 0 32 44" fill="none" xmlns="http://www.w3.org/2000/svg" xmlns:xlink="http://www.w3.org/1999/xlink">
<path d="M28.72,0.11C28.485,0.041 28.243,0.004 28,0L4,0C2.939,0 1.922,0.464 1.172,1.289C0.421,2.114 0,3.233 0,4.4L0,39.6C0,40.767 0.421,41.886 1.172,42.711C1.922,43.536 2.939,44 4,44L4,4.4L28,4.4L28,39.6L22,39.6L22,44L28,44C29.061,44 30.078,43.536 30.828,42.711C31.579,41.886 32,40.767 32,39.6L32,4.4C31.992,3.377 31.66,2.389 31.061,1.606C30.463,0.823 29.635,0.294 28.72,0.11Z" fill="#FFFFFF"/>
</svg>
