<svg width="616" height="388" viewBox="0 0 616 388" fill="none" xmlns="http://www.w3.org/2000/svg" xmlns:xlink="http://www.w3.org/1999/xlink">
<path d="M602.442,388L13.559,388C6.043,388 0,384.17 0,379.404L0,8.596C0,6.316 1.429,4.13 3.971,2.518C6.514,0.906 9.963,0 13.559,0C15.337,0 17.098,0.223 18.74,0.655C20.383,1.087 21.874,1.721 23.129,2.52C24.384,3.318 25.379,4.266 26.055,5.309C26.731,6.351 27.075,7.469 27.069,8.596L27.069,370.84L602.442,370.84C604.222,370.84 605.984,371.062 607.63,371.494C609.274,371.926 610.77,372.558 612.028,373.358C613.288,374.156 614.286,375.102 614.968,376.146C615.65,377.188 616,378.306 616,379.436C616,384.17 609.908,388 602.442,388Z" fill="#2F2F2F"/>
</svg>
