<svg width="100" height="68" viewBox="0 0 100 68" fill="none" xmlns="http://www.w3.org/2000/svg" xmlns:xlink="http://www.w3.org/1999/xlink">
<path d="M88.889,-0.944L11.111,-0.944C8.164,-0.944 5.338,0.156 3.254,2.115C1.171,4.073 0,6.73 0,9.5L0,56.5C0,59.27 1.171,61.927 3.254,63.885C5.338,65.844 8.164,66.944 11.111,66.944L88.889,66.944C91.836,66.944 94.662,65.844 96.746,63.885C98.829,61.927 100,59.27 100,56.5L100,9.5C100,6.73 98.829,4.073 96.746,2.115C94.662,0.156 91.836,-0.944 88.889,-0.944Z" fill="#C1272D"/>
</svg>
