<svg width="50" height="40" viewBox="0 0 50 40" fill="none" xmlns="http://www.w3.org/2000/svg" xmlns:xlink="http://www.w3.org/1999/xlink">
<path d="M6.161,12.724C6.16,10.615 6.618,8.54 7.492,6.684C8.366,4.827 9.629,3.249 11.167,2.091C12.705,0.933 14.471,0.231 16.305,0.048C18.139,-0.135 19.984,0.207 21.674,1.044C23.364,1.881 24.846,3.185 25.986,4.841C27.127,6.496 27.89,8.45 28.208,10.527C28.526,12.604 28.388,14.739 27.806,16.74C27.225,18.741 26.219,20.545 24.878,21.99C27.406,23.396 29.601,25.479 31.277,28.063C32.953,30.648 34.061,33.656 34.506,36.835C34.555,37.189 34.542,37.55 34.469,37.898C34.397,38.247 34.264,38.575 34.081,38.865C33.897,39.155 33.665,39.4 33.399,39.587C33.132,39.774 32.836,39.9 32.527,39.956C32.218,40.012 31.903,39.998 31.599,39.914C31.295,39.831 31.008,39.679 30.755,39.469C30.502,39.258 30.288,38.993 30.124,38.688C29.961,38.382 29.852,38.043 29.803,37.689C29.327,34.274 27.803,31.164 25.506,28.919C23.208,26.674 20.287,25.441 17.268,25.441C14.248,25.441 11.327,26.674 9.03,28.919C6.732,31.164 5.209,34.274 4.733,37.689C4.683,38.043 4.574,38.382 4.41,38.687C4.247,38.993 4.032,39.258 3.779,39.468C3.526,39.679 3.239,39.83 2.935,39.913C2.631,39.996 2.315,40.01 2.007,39.954C1.698,39.898 1.402,39.772 1.135,39.585C0.869,39.397 0.637,39.152 0.454,38.862C0.27,38.572 0.138,38.243 0.065,37.895C-0.007,37.547 -0.02,37.185 0.03,36.831C0.473,33.653 1.58,30.644 3.256,28.061C4.933,25.478 7.129,23.396 9.658,21.993C8.553,20.804 7.673,19.367 7.072,17.773C6.471,16.179 6.16,14.461 6.161,12.724ZM34.722,7.272C36.565,7.273 38.369,7.888 39.914,9.041C41.459,10.194 42.678,11.835 43.424,13.767C44.17,15.698 44.411,17.836 44.116,19.921C43.822,22.006 43.006,23.948 41.767,25.512C43.699,26.609 45.416,28.145 46.813,30.028C48.21,31.91 49.257,34.099 49.891,36.461C50.016,36.919 50.034,37.407 49.942,37.876C49.85,38.344 49.651,38.777 49.366,39.129C49.08,39.481 48.719,39.741 48.318,39.881C47.917,40.022 47.49,40.038 47.082,39.929C46.674,39.82 46.298,39.591 45.992,39.263C45.686,38.934 45.461,38.52 45.34,38.06C44.77,35.953 43.734,34.051 42.331,32.54C40.928,31.029 39.207,29.96 37.336,29.438C36.817,29.294 36.354,28.954 36.024,28.473C35.694,27.991 35.514,27.397 35.515,26.784L35.515,25.505C35.515,24.997 35.638,24.5 35.871,24.068C36.105,23.637 36.438,23.288 36.835,23.062C37.797,22.516 38.57,21.613 39.027,20.501C39.485,19.388 39.601,18.131 39.356,16.933C39.111,15.736 38.52,14.668 37.679,13.904C36.837,13.14 35.795,12.724 34.722,12.724C34.09,12.724 33.485,12.437 33.039,11.926C32.592,11.414 32.341,10.721 32.341,9.998C32.341,9.275 32.592,8.581 33.039,8.07C33.485,7.559 34.09,7.272 34.722,7.272ZM17.268,5.454C16.422,5.432 15.582,5.604 14.796,5.959C14.009,6.315 13.293,6.846 12.688,7.523C12.083,8.2 11.603,9.008 11.275,9.901C10.947,10.793 10.778,11.752 10.777,12.72C10.777,13.689 10.946,14.648 11.274,15.54C11.601,16.433 12.081,17.242 12.686,17.919C13.29,18.596 14.006,19.128 14.793,19.484C15.579,19.84 16.419,20.012 17.265,19.99C18.923,19.948 20.501,19.165 21.661,17.806C22.821,16.448 23.471,14.624 23.471,12.724C23.471,10.824 22.823,8.999 21.663,7.641C20.504,6.282 18.926,5.497 17.268,5.454Z" fill="#FFFFFF" stroke="#FFFFFF" stroke-width="1" stroke-miterlimit="3.999327"/>
</svg>
